<svg xmlns="http://www.w3.org/2000/svg" viewBox="0 0 280.028 280.028"><path d="M140.014 43.759c77.323 0 140.014 43.098 140.014 96.259s-62.691 96.251-140.014 96.251S0 193.188 0 140.027s62.691-96.268 140.014-96.268z" fill="#e4e7e7"/><path d="M140.014 70.011c38.661 0 70.007 31.346 70.007 70.007s-31.346 69.998-70.007 69.998-70.007-31.337-70.007-69.998 31.345-70.007 70.007-70.007z" fill="#3db39e"/><path d="M140.014 96.264c24.17 0 43.754 19.593 43.754 43.754 0 24.17-19.584 43.746-43.754 43.746S96.26 164.188 96.26 140.018c-.001-24.161 19.584-43.754 43.754-43.754z" fill="#324d5b"/><path d="M166.266 96.264c9.661 0 17.502 7.841 17.502 17.502s-7.841 17.493-17.502 17.493-17.502-7.832-17.502-17.493 7.841-17.502 17.502-17.502z" fill="#c9eae4"/><path d="M180.591 123.794a43.865 43.865 0 0 0-24.336-24.345c-4.524 3.168-7.491 8.392-7.491 14.325 0 9.661 7.841 17.493 17.502 17.493 5.933 0 11.14-2.966 14.325-7.473z" fill="#d6dbde"/></svg>